<?xml version="1.0" encoding="UTF-8"?>
<svg id="Layer_1" data-name="Layer 1" xmlns="http://www.w3.org/2000/svg" viewBox="0 0 1080 1080">
  <defs>
    <style>
      .cls-1 {
        fill: #c8e3f2;
      }

      .cls-2 {
        fill: #45b7e9;
      }
    </style>
  </defs>
  <g id="LOGO_SOARBLUE_-_TRAZADO" data-name="LOGO SOARBLUE - TRAZADO">
    <g>
      <path class="cls-1" d="M178.56,679.48c-5.86,0-11.25-.75-16.15-2.23-4.9-1.49-9.32-3.72-13.26-6.7-3.94-2.98-7.45-6.58-10.52-10.81l12.25-13.84c4.71,6.54,9.32,11.05,13.84,13.55,4.52,2.5,9.61,3.75,15.28,3.75,3.27,0,6.25-.5,8.94-1.51,2.69-1.01,4.81-2.4,6.34-4.18,1.54-1.78,2.31-3.82,2.31-6.13,0-1.63-.31-3.15-.94-4.54-.63-1.39-1.56-2.64-2.81-3.75-1.25-1.1-2.79-2.14-4.61-3.1-1.83-.96-3.89-1.78-6.2-2.45-2.31-.67-4.85-1.3-7.64-1.88-5.29-1.06-9.9-2.47-13.84-4.25-3.94-1.78-7.26-3.99-9.95-6.63-2.69-2.64-4.66-5.62-5.91-8.94-1.25-3.32-1.87-7.09-1.87-11.32s.94-8.12,2.81-11.68c1.87-3.55,4.44-6.63,7.71-9.23,3.27-2.6,7.06-4.61,11.39-6.06,4.33-1.44,8.99-2.16,13.99-2.16,5.67,0,10.74,.67,15.21,2.02,4.47,1.35,8.41,3.34,11.82,5.98,3.41,2.64,6.22,5.84,8.43,9.59l-12.4,12.25c-1.92-2.98-4.09-5.45-6.49-7.42-2.4-1.97-5-3.46-7.79-4.47-2.79-1.01-5.72-1.51-8.79-1.51-3.46,0-6.47,.48-9.01,1.44-2.55,.96-4.54,2.33-5.98,4.11-1.44,1.78-2.16,3.92-2.16,6.42,0,1.92,.43,3.63,1.3,5.12,.87,1.49,2.09,2.81,3.68,3.96s3.63,2.16,6.13,3.03c2.5,.87,5.33,1.63,8.51,2.31,5.28,1.06,10.04,2.48,14.27,4.25,4.23,1.78,7.83,3.89,10.81,6.34,2.98,2.45,5.24,5.24,6.78,8.36,1.54,3.12,2.31,6.61,2.31,10.45,0,6.63-1.56,12.33-4.69,17.08-3.12,4.76-7.52,8.41-13.19,10.96-5.67,2.55-12.3,3.82-19.9,3.82Z"/>
      <path class="cls-1" d="M278.76,679.48c-7.21,0-13.89-1.3-20.04-3.89-6.15-2.59-11.51-6.22-16.08-10.89-4.57-4.66-8.1-10.16-10.6-16.51-2.5-6.34-3.75-13.26-3.75-20.76s1.25-14.42,3.75-20.76c2.5-6.34,6.03-11.85,10.6-16.51,4.56-4.66,9.92-8.29,16.08-10.89,6.15-2.59,12.83-3.89,20.04-3.89s14.03,1.3,20.19,3.89c6.15,2.6,11.48,6.25,16,10.96,4.52,4.71,8.02,10.21,10.52,16.51,2.5,6.3,3.75,13.19,3.75,20.69s-1.25,14.27-3.75,20.62c-2.5,6.34-6.01,11.87-10.52,16.58-4.52,4.71-9.85,8.36-16,10.96-6.15,2.6-12.88,3.89-20.19,3.89Zm0-17.88c4.61,0,8.82-.84,12.62-2.52,3.8-1.68,7.09-4.08,9.88-7.21,2.79-3.12,4.97-6.75,6.56-10.89,1.59-4.13,2.38-8.65,2.38-13.55s-.79-9.42-2.38-13.55c-1.59-4.13-3.77-7.76-6.56-10.89-2.79-3.12-6.08-5.53-9.88-7.21-3.8-1.68-8-2.52-12.62-2.52s-8.7,.84-12.54,2.52c-3.85,1.68-7.16,4.06-9.95,7.14-2.79,3.08-4.95,6.68-6.49,10.81-1.54,4.13-2.31,8.7-2.31,13.7s.77,9.44,2.31,13.62c1.54,4.18,3.7,7.81,6.49,10.88,2.79,3.08,6.1,5.46,9.95,7.14,3.84,1.68,8.02,2.52,12.54,2.52Z"/>
      <path class="cls-1" d="M333.7,678.04l39.36-100.92h17.59l39.07,100.92h-19.46l-21.63-57.38c-.48-1.15-1.13-2.98-1.95-5.48-.82-2.5-1.71-5.21-2.67-8.15-.96-2.93-1.83-5.67-2.6-8.22-.77-2.54-1.35-4.4-1.73-5.55l3.6-.14c-.58,1.92-1.25,4.09-2.02,6.49-.77,2.4-1.59,4.9-2.45,7.5-.86,2.59-1.71,5.1-2.52,7.5-.82,2.4-1.56,4.57-2.23,6.49l-21.63,56.95h-18.74Zm17.88-23.07l6.49-16.29h45.99l6.92,16.29h-59.4Z"/>
      <path class="cls-1" d="M443.85,678.04v-100.92h43.83c6.06,0,11.58,1.42,16.58,4.25,5,2.84,8.96,6.68,11.9,11.53,2.93,4.86,4.4,10.31,4.4,16.36s-1.47,11.08-4.4,15.93c-2.93,4.86-6.87,8.7-11.82,11.53-4.95,2.84-10.5,4.25-16.65,4.25h-25.52v37.05h-18.31Zm18.31-53.35h25.66c2.79,0,5.21-.65,7.28-1.95,2.07-1.3,3.68-3.1,4.83-5.41s1.73-4.85,1.73-7.64c0-3.17-.72-5.91-2.16-8.22s-3.46-4.13-6.06-5.48c-2.6-1.35-5.58-2.02-8.94-2.02h-22.35v30.71Zm40.23,53.35l-25.66-45.56,19.32-3.6,28.55,49.31-22.2-.14Z"/>
      <path class="cls-1" d="M583.27,678.04v-100.92h42.97c6.63,0,12.23,.96,16.8,2.88,4.56,1.92,8.02,4.78,10.38,8.58,2.35,3.8,3.53,8.39,3.53,13.77s-1.49,10.29-4.47,14.13c-2.98,3.85-7.16,6.49-12.54,7.93l-.14-2.88c4.52,.96,8.46,2.67,11.82,5.12,3.36,2.45,5.98,5.48,7.86,9.08,1.87,3.6,2.81,7.71,2.81,12.33,0,4.9-.79,9.23-2.38,12.98-1.59,3.75-3.92,6.87-6.99,9.37-3.08,2.5-6.73,4.4-10.96,5.7-4.23,1.3-8.99,1.95-14.27,1.95h-44.41Zm18.31-59.55h22.92c2.79,0,5.21-.53,7.28-1.59,2.07-1.06,3.68-2.5,4.83-4.33,1.15-1.83,1.73-3.94,1.73-6.34,0-3.84-1.3-6.85-3.89-9.01-2.6-2.16-6.39-3.24-11.39-3.24h-21.48v24.51Zm0,42.68h25.23c3.55,0,6.56-.53,9.01-1.59,2.45-1.06,4.33-2.62,5.62-4.69,1.3-2.07,1.95-4.54,1.95-7.42,0-2.69-.7-5-2.09-6.92-1.39-1.92-3.39-3.39-5.98-4.4-2.6-1.01-5.67-1.51-9.23-1.51h-24.51v26.53Z"/>
      <path class="cls-1" d="M680.73,678.04v-100.92h18.74v83.62h46.57v17.3h-65.31Z"/>
      <path class="cls-1" d="M803.28,678.91c-7.98,0-15.09-1.71-21.34-5.12-6.25-3.41-11.17-8.12-14.78-14.13-3.6-6.01-5.41-12.81-5.41-20.4v-62.29h18.89v60.99c0,4.52,1.03,8.53,3.1,12.04,2.07,3.51,4.83,6.32,8.29,8.43,3.46,2.12,7.21,3.17,11.25,3.17,4.42,0,8.41-1.06,11.97-3.17,3.55-2.11,6.37-4.92,8.43-8.43,2.07-3.51,3.1-7.52,3.1-12.04v-60.99h18.17v62.29c0,7.59-1.8,14.4-5.41,20.4-3.6,6.01-8.53,10.72-14.78,14.13-6.25,3.41-13.41,5.12-21.48,5.12Z"/>
      <path class="cls-1" d="M869.17,678.04v-100.92h66.03v17.01h-47.58v66.9h48.16v17.01h-66.61Zm8.65-43.25v-16.72h50.03v16.72h-50.03Z"/>
    </g>
    <g>
      <path class="cls-1" d="M298.48,760.52v-18.2h2.76l6.63,10.79-1.33-.03,6.71-10.76h2.6v18.2h-2.81v-7.46c0-1.56,.04-2.96,.12-4.21s.21-2.49,.4-3.72l.36,.96-5.95,9.2h-1.72l-5.77-9.1,.29-1.07c.19,1.16,.33,2.35,.4,3.58,.08,1.22,.12,2.67,.12,4.35v7.46h-2.81Z"/>
      <path class="cls-1" d="M321.43,760.52v-18.2h11.47v2.7h-8.66v12.79h8.66v2.7h-11.47Zm1.27-7.98v-2.7h8.76v2.7h-8.76Z"/>
      <path class="cls-1" d="M337.89,760.52v-18.2h7.12c1.3,0,2.47,.22,3.52,.65s1.95,1.06,2.69,1.87c.74,.81,1.32,1.78,1.72,2.89,.4,1.11,.6,2.34,.6,3.69s-.2,2.59-.6,3.71c-.4,1.12-.97,2.08-1.7,2.89-.74,.81-1.63,1.43-2.69,1.86-1.06,.43-2.24,.65-3.54,.65h-7.12Zm2.81-2.42l-.08-.29h4.26c.92,0,1.74-.15,2.46-.44,.72-.29,1.33-.71,1.82-1.26s.87-1.22,1.13-2.01,.39-1.69,.39-2.68-.13-1.88-.39-2.67c-.26-.79-.64-1.46-1.14-2.01-.5-.55-1.11-.98-1.82-1.28-.71-.29-1.53-.44-2.44-.44h-4.34l.16-.23v13.31Z"/>
      <path class="cls-1" d="M356.77,760.52v-2.6h2.94v-13h-2.94v-2.6h8.68v2.6h-2.94v13h2.94v2.6h-8.68Z"/>
      <path class="cls-1" d="M377.59,760.78c-1.28,0-2.47-.23-3.55-.7-1.08-.47-2.03-1.12-2.83-1.96-.81-.84-1.43-1.83-1.87-2.96-.44-1.13-.66-2.38-.66-3.73s.22-2.6,.66-3.73c.44-1.13,1.07-2.12,1.87-2.96,.81-.84,1.75-1.5,2.83-1.96,1.08-.47,2.27-.7,3.55-.7s2.46,.23,3.55,.7c1.08,.47,2.03,1.13,2.83,1.98,.81,.85,1.43,1.84,1.87,2.98,.44,1.13,.66,2.37,.66,3.71s-.22,2.57-.66,3.71c-.44,1.13-1.07,2.13-1.87,2.98s-1.75,1.51-2.83,1.98c-1.08,.47-2.27,.7-3.55,.7Zm0-2.73c.88,0,1.69-.16,2.43-.49,.74-.33,1.37-.79,1.91-1.39,.54-.6,.96-1.3,1.26-2.11s.46-1.69,.46-2.64-.15-1.83-.46-2.64c-.3-.81-.72-1.51-1.26-2.11-.54-.6-1.17-1.06-1.91-1.39-.74-.33-1.55-.49-2.43-.49s-1.69,.17-2.43,.49c-.74,.33-1.38,.79-1.92,1.38-.55,.59-.97,1.29-1.26,2.09-.29,.81-.44,1.7-.44,2.67s.15,1.84,.44,2.65c.29,.82,.71,1.52,1.26,2.11s1.19,1.05,1.92,1.38c.74,.33,1.55,.49,2.43,.49Z"/>
      <path class="cls-1" d="M388.38,760.52l7.05-18.2h2.86l6.99,18.2h-2.99l-4.16-10.97c-.05-.12-.15-.42-.3-.88-.15-.47-.32-.99-.51-1.56-.19-.57-.36-1.1-.52-1.57s-.26-.79-.31-.92l.6-.03c-.1,.29-.23,.67-.38,1.12-.15,.45-.3,.93-.47,1.43-.17,.5-.33,.98-.48,1.42-.16,.44-.29,.81-.39,1.1l-4.13,10.87h-2.86Zm3.12-4.52l1.04-2.71h8.27l1.2,2.71h-10.5Z"/>
      <path class="cls-1" d="M408.98,760.52v-18.2h2.76l6.63,10.79-1.33-.03,6.71-10.76h2.6v18.2h-2.81v-7.46c0-1.56,.04-2.96,.12-4.21s.21-2.49,.4-3.72l.36,.96-5.95,9.2h-1.72l-5.77-9.1,.29-1.07c.19,1.16,.33,2.35,.4,3.58,.08,1.22,.12,2.67,.12,4.35v7.46h-2.81Z"/>
      <path class="cls-1" d="M431.93,760.52v-18.2h7.59c1.16,0,2.14,.17,2.94,.52,.8,.35,1.4,.86,1.81,1.55s.61,1.52,.61,2.51-.27,1.83-.82,2.52-1.3,1.17-2.28,1.43v-.52c.81,.17,1.53,.48,2.13,.92,.61,.44,1.08,.99,1.42,1.65,.34,.66,.51,1.41,.51,2.26s-.13,1.63-.4,2.3c-.27,.67-.67,1.23-1.2,1.68-.53,.45-1.17,.79-1.91,1.03-.75,.23-1.6,.35-2.55,.35h-7.85Zm2.81-10.66h4.63c.52,0,.98-.1,1.39-.31,.41-.21,.73-.49,.96-.86,.23-.36,.35-.78,.35-1.25,0-.78-.26-1.38-.78-1.79-.52-.42-1.27-.62-2.24-.62h-4.32v4.84Zm0,7.96h4.89c.71,0,1.31-.1,1.81-.31,.49-.21,.88-.52,1.14-.92,.27-.41,.4-.9,.4-1.47,0-.54-.14-1-.43-1.38-.29-.38-.69-.67-1.21-.87-.52-.2-1.14-.3-1.85-.3h-4.76v5.25Z"/>
      <path class="cls-1" d="M449.46,760.52v-2.6h2.94v-13h-2.94v-2.6h8.68v2.6h-2.94v13h2.94v2.6h-8.68Z"/>
      <path class="cls-1" d="M463.06,760.52v-18.2h11.47v2.7h-8.66v12.79h8.66v2.7h-11.47Zm1.27-7.98v-2.7h8.76v2.7h-8.76Z"/>
      <path class="cls-1" d="M479.51,760.52v-18.2h2.52l11.13,14.9-.42,.23c-.07-.43-.13-.91-.18-1.42-.05-.51-.1-1.06-.14-1.64-.04-.58-.08-1.2-.1-1.85-.03-.65-.05-1.33-.06-2.04-.02-.71-.03-1.45-.03-2.21v-5.98h2.81v18.2h-2.57l-10.95-14.35,.29-.36c.09,1.06,.16,1.95,.22,2.69,.06,.74,.11,1.36,.16,1.87,.04,.51,.07,.93,.09,1.25,.02,.32,.03,.58,.04,.79,0,.21,.01,.39,.01,.54v7.57h-2.81Z"/>
      <path class="cls-1" d="M504.08,760.52v-15.5h-5.1v-2.7h13.16v2.7h-5.25v15.5h-2.81Z"/>
      <path class="cls-1" d="M516.09,760.52v-18.2h11.47v2.7h-8.66v12.79h8.66v2.7h-11.47Zm1.27-7.98v-2.7h8.76v2.7h-8.76Z"/>
      <path class="cls-1" d="M545.94,760.78c-.99,0-1.9-.13-2.74-.39-.84-.26-1.6-.65-2.29-1.18-.68-.53-1.3-1.18-1.83-1.96l1.92-2.21c.85,1.21,1.66,2.05,2.44,2.52s1.71,.7,2.78,.7c.66,0,1.26-.1,1.79-.31,.54-.21,.96-.49,1.27-.86,.31-.36,.47-.78,.47-1.25,0-.31-.05-.61-.16-.88-.1-.28-.26-.53-.48-.75-.22-.22-.49-.43-.83-.62-.34-.19-.73-.36-1.18-.51-.45-.15-.97-.27-1.56-.38-.94-.19-1.75-.44-2.44-.75-.69-.31-1.27-.7-1.74-1.17s-.82-1-1.04-1.6c-.23-.6-.34-1.27-.34-2.01s.16-1.4,.48-2.03c.32-.62,.76-1.17,1.33-1.62,.56-.46,1.23-.81,1.99-1.07s1.59-.38,2.47-.38c.94,0,1.79,.12,2.57,.36s1.47,.6,2.08,1.08c.61,.48,1.11,1.06,1.51,1.76l-1.98,1.95c-.35-.57-.74-1.05-1.17-1.44-.43-.39-.91-.68-1.43-.88-.52-.2-1.07-.3-1.66-.3-.68,0-1.27,.1-1.77,.31-.5,.21-.9,.5-1.18,.87-.29,.37-.43,.81-.43,1.31,0,.36,.07,.7,.21,1,.14,.3,.35,.57,.64,.81,.29,.23,.67,.44,1.16,.62,.49,.18,1.07,.34,1.74,.48,.95,.21,1.8,.47,2.55,.79,.75,.32,1.38,.7,1.9,1.13,.52,.43,.91,.92,1.18,1.46,.27,.54,.4,1.12,.4,1.74,0,1.16-.27,2.17-.81,3.02-.54,.85-1.3,1.5-2.29,1.96-.99,.46-2.17,.69-3.54,.69Z"/>
      <path class="cls-1" d="M564.66,760.78c-1.28,0-2.47-.23-3.55-.7-1.08-.47-2.03-1.12-2.83-1.96-.81-.84-1.43-1.83-1.87-2.96-.44-1.13-.66-2.38-.66-3.73s.22-2.6,.66-3.73c.44-1.13,1.07-2.12,1.87-2.96,.81-.84,1.75-1.5,2.83-1.96,1.08-.47,2.27-.7,3.55-.7s2.46,.23,3.55,.7c1.08,.47,2.03,1.13,2.83,1.98,.81,.85,1.43,1.84,1.87,2.98,.44,1.13,.66,2.37,.66,3.71s-.22,2.57-.66,3.71c-.44,1.13-1.07,2.13-1.87,2.98s-1.75,1.51-2.83,1.98c-1.08,.47-2.27,.7-3.55,.7Zm0-2.73c.88,0,1.69-.16,2.43-.49,.74-.33,1.37-.79,1.91-1.39,.54-.6,.96-1.3,1.26-2.11s.46-1.69,.46-2.64-.15-1.83-.46-2.64c-.3-.81-.72-1.51-1.26-2.11-.54-.6-1.17-1.06-1.91-1.39-.74-.33-1.55-.49-2.43-.49s-1.69,.17-2.43,.49c-.74,.33-1.38,.79-1.92,1.38-.55,.59-.97,1.29-1.26,2.09-.29,.81-.44,1.7-.44,2.67s.15,1.84,.44,2.65c.29,.82,.71,1.52,1.26,2.11s1.19,1.05,1.92,1.38c.74,.33,1.55,.49,2.43,.49Z"/>
      <path class="cls-1" d="M583.49,760.78c-.99,0-1.9-.13-2.74-.39-.84-.26-1.6-.65-2.29-1.18-.68-.53-1.3-1.18-1.83-1.96l1.92-2.21c.85,1.21,1.66,2.05,2.44,2.52s1.71,.7,2.78,.7c.66,0,1.26-.1,1.79-.31,.54-.21,.96-.49,1.27-.86,.31-.36,.47-.78,.47-1.25,0-.31-.05-.61-.16-.88-.1-.28-.26-.53-.48-.75-.22-.22-.49-.43-.83-.62-.34-.19-.73-.36-1.18-.51-.45-.15-.97-.27-1.56-.38-.94-.19-1.75-.44-2.44-.75-.69-.31-1.27-.7-1.74-1.17s-.82-1-1.04-1.6c-.23-.6-.34-1.27-.34-2.01s.16-1.4,.48-2.03c.32-.62,.76-1.17,1.33-1.62,.56-.46,1.23-.81,1.99-1.07s1.59-.38,2.47-.38c.94,0,1.79,.12,2.57,.36s1.47,.6,2.08,1.08c.61,.48,1.11,1.06,1.51,1.76l-1.98,1.95c-.35-.57-.74-1.05-1.17-1.44-.43-.39-.91-.68-1.43-.88-.52-.2-1.07-.3-1.66-.3-.68,0-1.27,.1-1.77,.31-.5,.21-.9,.5-1.18,.87-.29,.37-.43,.81-.43,1.31,0,.36,.07,.7,.21,1,.14,.3,.35,.57,.64,.81,.29,.23,.67,.44,1.16,.62,.49,.18,1.07,.34,1.74,.48,.95,.21,1.8,.47,2.55,.79,.75,.32,1.38,.7,1.9,1.13,.52,.43,.91,.92,1.18,1.46,.27,.54,.4,1.12,.4,1.74,0,1.16-.27,2.17-.81,3.02-.54,.85-1.3,1.5-2.29,1.96-.99,.46-2.17,.69-3.54,.69Z"/>
      <path class="cls-1" d="M598.05,760.52v-15.5h-5.1v-2.7h13.16v2.7h-5.25v15.5h-2.81Z"/>
      <path class="cls-1" d="M610.06,760.52v-18.2h11.47v2.7h-8.66v12.79h8.66v2.7h-11.47Zm1.27-7.98v-2.7h8.76v2.7h-8.76Z"/>
      <path class="cls-1" d="M626.52,760.52v-18.2h2.52l11.13,14.9-.42,.23c-.07-.43-.13-.91-.18-1.42-.05-.51-.1-1.06-.14-1.64-.04-.58-.08-1.2-.1-1.85-.03-.65-.05-1.33-.06-2.04-.02-.71-.03-1.45-.03-2.21v-5.98h2.81v18.2h-2.57l-10.95-14.35,.29-.36c.09,1.06,.16,1.95,.22,2.69,.06,.74,.11,1.36,.16,1.87,.04,.51,.07,.93,.09,1.25,.02,.32,.03,.58,.04,.79,0,.21,.01,.39,.01,.54v7.57h-2.81Z"/>
      <path class="cls-1" d="M646.95,760.52v-2.6h2.94v-13h-2.94v-2.6h8.68v2.6h-2.94v13h2.94v2.6h-8.68Z"/>
      <path class="cls-1" d="M660.55,760.52v-18.2h7.59c1.16,0,2.14,.17,2.94,.52s1.4,.86,1.81,1.55,.61,1.52,.61,2.51-.27,1.83-.82,2.52c-.55,.69-1.3,1.17-2.27,1.43v-.52c.81,.17,1.53,.48,2.13,.92,.61,.44,1.08,.99,1.42,1.65,.34,.66,.51,1.41,.51,2.26s-.13,1.63-.4,2.3c-.27,.67-.67,1.23-1.2,1.68-.53,.45-1.17,.79-1.91,1.03-.75,.23-1.59,.35-2.55,.35h-7.85Zm2.81-10.66h4.63c.52,0,.98-.1,1.39-.31,.41-.21,.73-.49,.96-.86,.23-.36,.35-.78,.35-1.25,0-.78-.26-1.38-.78-1.79-.52-.42-1.27-.62-2.24-.62h-4.32v4.84Zm0,7.96h4.89c.71,0,1.31-.1,1.81-.31,.49-.21,.88-.52,1.14-.92,.27-.41,.4-.9,.4-1.47,0-.54-.14-1-.43-1.38-.29-.38-.69-.67-1.21-.87-.52-.2-1.13-.3-1.85-.3h-4.76v5.25Z"/>
      <path class="cls-1" d="M678.07,760.52v-2.6h2.94v-13h-2.94v-2.6h8.68v2.6h-2.94v13h2.94v2.6h-8.68Z"/>
      <path class="cls-1" d="M691.67,760.52v-18.2h2.81v15.5h8.53v2.7h-11.34Z"/>
      <path class="cls-1" d="M707.06,760.52v-2.6h2.94v-13h-2.94v-2.6h8.68v2.6h-2.94v13h2.94v2.6h-8.68Z"/>
      <path class="cls-1" d="M720.66,760.52v-18.2h7.12c1.3,0,2.47,.22,3.52,.65s1.95,1.06,2.69,1.87,1.32,1.78,1.72,2.89c.4,1.11,.6,2.34,.6,3.69s-.2,2.59-.6,3.71c-.4,1.12-.97,2.08-1.7,2.89-.74,.81-1.63,1.43-2.69,1.86-1.06,.43-2.24,.65-3.54,.65h-7.12Zm2.81-2.42l-.08-.29h4.26c.92,0,1.74-.15,2.46-.44,.72-.29,1.33-.71,1.82-1.26,.49-.55,.87-1.22,1.13-2.01,.26-.8,.39-1.69,.39-2.68s-.13-1.88-.39-2.67c-.26-.79-.64-1.46-1.14-2.01s-1.11-.98-1.82-1.28c-.71-.29-1.53-.44-2.44-.44h-4.34l.16-.23v13.31Z"/>
      <path class="cls-1" d="M738.19,760.52l7.05-18.2h2.86l6.99,18.2h-2.99l-4.16-10.97c-.05-.12-.15-.42-.3-.88-.15-.47-.32-.99-.51-1.56-.19-.57-.36-1.1-.52-1.57-.16-.48-.26-.79-.31-.92l.6-.03c-.1,.29-.23,.67-.38,1.12-.15,.45-.3,.93-.47,1.43-.17,.5-.33,.98-.48,1.42-.16,.44-.29,.81-.39,1.1l-4.13,10.87h-2.86Zm3.12-4.52l1.04-2.71h8.27l1.2,2.71h-10.5Z"/>
      <path class="cls-1" d="M758.78,760.52v-18.2h7.12c1.3,0,2.47,.22,3.52,.65s1.95,1.06,2.69,1.87c.74,.81,1.32,1.78,1.72,2.89,.4,1.11,.6,2.34,.6,3.69s-.2,2.59-.6,3.71c-.4,1.12-.97,2.08-1.7,2.89-.74,.81-1.63,1.43-2.69,1.86-1.06,.43-2.24,.65-3.54,.65h-7.12Zm2.81-2.42l-.08-.29h4.26c.92,0,1.74-.15,2.46-.44,.72-.29,1.33-.71,1.82-1.26s.87-1.22,1.13-2.01,.39-1.69,.39-2.68-.13-1.88-.39-2.67c-.26-.79-.64-1.46-1.14-2.01-.5-.55-1.11-.98-1.82-1.28-.71-.29-1.53-.44-2.44-.44h-4.34l.16-.23v13.31Z"/>
      <path class="cls-1" d="M252.57,791.98c-1.27,0-2.43-.23-3.48-.68-1.06-.45-1.98-1.1-2.76-1.94-.78-.84-1.38-1.83-1.81-2.98s-.64-2.4-.64-3.77c0-1.3,.23-2.51,.69-3.63,.46-1.12,1.1-2.1,1.91-2.95,.81-.85,1.76-1.51,2.83-1.97,1.07-.47,2.24-.7,3.48-.7,.88,0,1.75,.13,2.59,.4s1.6,.64,2.29,1.12c.68,.48,1.24,1.02,1.68,1.62l-1.87,1.95c-.5-.5-1.01-.92-1.52-1.26-.51-.34-1.03-.59-1.56-.77-.53-.17-1.06-.26-1.6-.26-.85,0-1.64,.16-2.38,.48-.74,.32-1.38,.77-1.92,1.34-.55,.57-.97,1.25-1.29,2.04-.31,.79-.47,1.65-.47,2.59,0,.99,.15,1.89,.46,2.69,.3,.81,.73,1.5,1.29,2.07,.55,.57,1.22,1.01,1.99,1.31,.77,.3,1.62,.45,2.56,.45,.57,0,1.14-.08,1.69-.23s1.07-.38,1.56-.68,.93-.64,1.33-1.04l1.4,2.29c-.4,.47-.94,.89-1.62,1.27-.69,.38-1.45,.68-2.29,.9s-1.69,.33-2.54,.33Z"/>
      <path class="cls-1" d="M270.96,791.98c-1.28,0-2.47-.23-3.55-.7-1.08-.47-2.03-1.12-2.83-1.96-.81-.84-1.43-1.83-1.87-2.96-.44-1.13-.66-2.38-.66-3.73s.22-2.59,.66-3.73c.44-1.13,1.07-2.12,1.87-2.96,.81-.84,1.75-1.5,2.83-1.96,1.08-.47,2.27-.7,3.55-.7s2.46,.23,3.55,.7c1.08,.47,2.03,1.13,2.83,1.98,.81,.85,1.43,1.84,1.87,2.98,.44,1.14,.66,2.37,.66,3.71s-.22,2.57-.66,3.71c-.44,1.14-1.07,2.13-1.87,2.98-.81,.85-1.75,1.51-2.83,1.98-1.08,.47-2.27,.7-3.55,.7Zm0-2.73c.88,0,1.69-.17,2.43-.49,.74-.33,1.37-.79,1.91-1.39,.54-.6,.96-1.3,1.26-2.11s.46-1.69,.46-2.64-.15-1.83-.46-2.64c-.3-.81-.72-1.51-1.26-2.11s-1.17-1.06-1.91-1.39c-.74-.33-1.55-.49-2.43-.49s-1.69,.16-2.43,.49c-.74,.33-1.38,.79-1.92,1.38-.55,.59-.97,1.29-1.26,2.09-.29,.81-.44,1.69-.44,2.66s.15,1.84,.44,2.65,.71,1.52,1.26,2.11,1.19,1.05,1.92,1.38c.74,.33,1.55,.49,2.43,.49Z"/>
      <path class="cls-1" d="M284.16,791.72v-18.2h2.76l6.63,10.79-1.33-.03,6.71-10.76h2.6v18.2h-2.81v-7.46c0-1.56,.04-2.96,.12-4.21s.21-2.49,.4-3.72l.36,.96-5.95,9.21h-1.72l-5.77-9.1,.29-1.07c.19,1.16,.33,2.35,.4,3.57,.08,1.22,.12,2.67,.12,4.36v7.46h-2.81Z"/>
      <path class="cls-1" d="M314.19,791.87c-1.4,0-2.66-.31-3.77-.92s-1.98-1.46-2.61-2.55c-.63-1.08-.95-2.31-.95-3.68v-11.23h2.81v11c0,.88,.21,1.68,.62,2.38,.42,.7,.97,1.26,1.65,1.68,.68,.42,1.43,.62,2.25,.62,.87,0,1.65-.21,2.35-.62s1.26-.98,1.68-1.68c.42-.7,.62-1.5,.62-2.38v-11h2.68v11.23c0,1.37-.32,2.6-.95,3.68-.63,1.08-1.5,1.93-2.61,2.55s-2.37,.92-3.77,.92Z"/>
      <path class="cls-1" d="M326.85,791.72v-18.2h2.52l11.13,14.9-.42,.23c-.07-.43-.13-.91-.18-1.42-.05-.51-.1-1.06-.14-1.64-.04-.58-.08-1.2-.1-1.85-.03-.65-.05-1.33-.06-2.04-.02-.71-.03-1.45-.03-2.21v-5.98h2.81v18.2h-2.57l-10.95-14.35,.29-.36c.09,1.06,.16,1.95,.22,2.69,.06,.74,.11,1.36,.16,1.87,.04,.51,.07,.93,.09,1.25,.02,.32,.03,.59,.04,.79,0,.21,.01,.39,.01,.55v7.57h-2.81Z"/>
      <path class="cls-1" d="M347.29,791.72v-2.6h2.94v-13h-2.94v-2.6h8.68v2.6h-2.94v13h2.94v2.6h-8.68Z"/>
      <path class="cls-1" d="M367.88,791.98c-1.27,0-2.43-.23-3.48-.68-1.06-.45-1.98-1.1-2.76-1.94-.78-.84-1.38-1.83-1.81-2.98s-.64-2.4-.64-3.77c0-1.3,.23-2.51,.69-3.63,.46-1.12,1.1-2.1,1.91-2.95,.81-.85,1.76-1.51,2.83-1.97,1.07-.47,2.24-.7,3.48-.7,.88,0,1.75,.13,2.59,.4s1.6,.64,2.29,1.12,1.24,1.02,1.68,1.62l-1.87,1.95c-.5-.5-1.01-.92-1.52-1.26-.51-.34-1.03-.59-1.56-.77-.53-.17-1.06-.26-1.6-.26-.85,0-1.64,.16-2.38,.48-.74,.32-1.38,.77-1.92,1.34s-.97,1.25-1.29,2.04c-.31,.79-.47,1.65-.47,2.59,0,.99,.15,1.89,.46,2.69,.3,.81,.73,1.5,1.29,2.07,.55,.57,1.22,1.01,1.99,1.31,.77,.3,1.62,.45,2.56,.45,.57,0,1.13-.08,1.69-.23s1.08-.38,1.56-.68,.93-.64,1.33-1.04l1.4,2.29c-.4,.47-.94,.89-1.62,1.27s-1.45,.68-2.29,.9-1.69,.33-2.53,.33Z"/>
      <path class="cls-1" d="M376.75,791.72l7.05-18.2h2.86l6.99,18.2h-2.99l-4.16-10.97c-.05-.12-.15-.42-.3-.88-.15-.47-.32-.99-.51-1.56-.19-.57-.36-1.1-.52-1.57-.16-.48-.26-.78-.31-.92l.6-.03c-.1,.29-.23,.67-.38,1.12-.15,.45-.3,.93-.47,1.43-.17,.5-.33,.97-.48,1.42-.16,.44-.29,.81-.39,1.11l-4.13,10.87h-2.86Zm3.12-4.52l1.04-2.7h8.27l1.2,2.7h-10.5Z"/>
      <path class="cls-1" d="M404.2,791.98c-1.27,0-2.43-.23-3.48-.68-1.06-.45-1.98-1.1-2.76-1.94-.78-.84-1.38-1.83-1.81-2.98s-.64-2.4-.64-3.77c0-1.3,.23-2.51,.69-3.63,.46-1.12,1.1-2.1,1.91-2.95,.81-.85,1.76-1.51,2.83-1.97,1.07-.47,2.24-.7,3.48-.7,.88,0,1.75,.13,2.59,.4s1.6,.64,2.29,1.12c.68,.48,1.24,1.02,1.68,1.62l-1.87,1.95c-.5-.5-1.01-.92-1.52-1.26-.51-.34-1.03-.59-1.56-.77-.53-.17-1.06-.26-1.6-.26-.85,0-1.64,.16-2.38,.48-.74,.32-1.38,.77-1.92,1.34-.55,.57-.97,1.25-1.29,2.04-.31,.79-.47,1.65-.47,2.59,0,.99,.15,1.89,.46,2.69,.3,.81,.73,1.5,1.29,2.07,.55,.57,1.22,1.01,1.99,1.31,.77,.3,1.62,.45,2.56,.45,.57,0,1.14-.08,1.69-.23s1.07-.38,1.56-.68,.93-.64,1.33-1.04l1.4,2.29c-.4,.47-.94,.89-1.62,1.27-.69,.38-1.45,.68-2.29,.9s-1.69,.33-2.54,.33Z"/>
      <path class="cls-1" d="M414.29,791.72v-2.6h2.94v-13h-2.94v-2.6h8.68v2.6h-2.94v13h2.94v2.6h-8.68Z"/>
      <path class="cls-1" d="M435.12,791.98c-1.28,0-2.47-.23-3.55-.7-1.08-.47-2.03-1.12-2.83-1.96-.81-.84-1.43-1.83-1.87-2.96-.44-1.13-.66-2.38-.66-3.73s.22-2.59,.66-3.73c.44-1.13,1.07-2.12,1.87-2.96,.81-.84,1.75-1.5,2.83-1.96,1.08-.47,2.27-.7,3.55-.7s2.46,.23,3.55,.7c1.08,.47,2.03,1.13,2.83,1.98,.81,.85,1.43,1.84,1.87,2.98,.44,1.14,.66,2.37,.66,3.71s-.22,2.57-.66,3.71c-.44,1.14-1.07,2.13-1.87,2.98-.81,.85-1.75,1.51-2.83,1.98-1.08,.47-2.27,.7-3.55,.7Zm0-2.73c.88,0,1.69-.17,2.43-.49,.74-.33,1.37-.79,1.91-1.39,.54-.6,.96-1.3,1.26-2.11s.46-1.69,.46-2.64-.15-1.83-.46-2.64c-.3-.81-.72-1.51-1.26-2.11s-1.17-1.06-1.91-1.39c-.74-.33-1.55-.49-2.43-.49s-1.69,.16-2.43,.49c-.74,.33-1.38,.79-1.92,1.38-.55,.59-.97,1.29-1.26,2.09-.29,.81-.44,1.69-.44,2.66s.15,1.84,.44,2.65,.71,1.52,1.26,2.11,1.19,1.05,1.92,1.38c.74,.33,1.55,.49,2.43,.49Zm-1.77-17.16l-.73-1.35,4.76-2.94,1.22,2.34-5.25,1.95Z"/>
      <path class="cls-1" d="M448.33,791.72v-18.2h2.52l11.13,14.9-.42,.23c-.07-.43-.13-.91-.18-1.42-.05-.51-.1-1.06-.14-1.64-.04-.58-.08-1.2-.1-1.85-.03-.65-.05-1.33-.06-2.04-.02-.71-.03-1.45-.03-2.21v-5.98h2.81v18.2h-2.57l-10.95-14.35,.29-.36c.09,1.06,.16,1.95,.22,2.69,.06,.74,.11,1.36,.16,1.87,.04,.51,.07,.93,.09,1.25,.02,.32,.03,.59,.04,.79,0,.21,.01,.39,.01,.55v7.57h-2.81Z"/>
      <path class="cls-1" d="M475.31,791.72l7.05-18.2h2.86l6.99,18.2h-2.99l-4.16-10.97c-.05-.12-.15-.42-.3-.88-.15-.47-.32-.99-.51-1.56-.19-.57-.36-1.1-.52-1.57-.16-.48-.26-.78-.31-.92l.6-.03c-.1,.29-.23,.67-.38,1.12-.15,.45-.3,.93-.47,1.43-.17,.5-.33,.97-.48,1.42-.16,.44-.29,.81-.39,1.11l-4.13,10.87h-2.86Zm3.12-4.52l1.04-2.7h8.27l1.2,2.7h-10.5Z"/>
      <path class="cls-1" d="M495.91,791.72v-18.2h2.76l6.63,10.79-1.33-.03,6.71-10.76h2.6v18.2h-2.81v-7.46c0-1.56,.04-2.96,.12-4.21s.21-2.49,.4-3.72l.36,.96-5.95,9.21h-1.72l-5.77-9.1,.29-1.07c.19,1.16,.33,2.35,.4,3.57,.08,1.22,.12,2.67,.12,4.36v7.46h-2.81Z"/>
      <path class="cls-1" d="M518.86,791.72v-18.2h7.59c1.16,0,2.14,.17,2.94,.52,.8,.35,1.4,.86,1.81,1.55s.61,1.52,.61,2.51-.27,1.83-.82,2.52c-.55,.69-1.3,1.17-2.27,1.43v-.52c.81,.17,1.53,.48,2.13,.92,.61,.44,1.08,.99,1.42,1.65,.34,.66,.51,1.41,.51,2.26s-.13,1.63-.4,2.3c-.27,.67-.67,1.23-1.2,1.68-.53,.45-1.17,.79-1.91,1.03-.75,.23-1.59,.35-2.55,.35h-7.85Zm2.81-10.66h4.63c.52,0,.98-.1,1.39-.31,.41-.21,.73-.49,.96-.86,.23-.36,.35-.78,.35-1.25,0-.78-.26-1.38-.78-1.79-.52-.42-1.27-.62-2.24-.62h-4.32v4.84Zm0,7.96h4.89c.71,0,1.31-.1,1.81-.31,.49-.21,.88-.52,1.14-.92,.27-.41,.4-.9,.4-1.47,0-.54-.14-1-.43-1.38-.29-.38-.69-.67-1.21-.87-.52-.2-1.13-.3-1.85-.3h-4.76v5.25Z"/>
      <path class="cls-1" d="M536.39,791.72v-2.6h2.94v-13h-2.94v-2.6h8.68v2.6h-2.94v13h2.94v2.6h-8.68Z"/>
      <path class="cls-1" d="M549.99,791.72v-18.2h11.47v2.7h-8.66v12.79h8.66v2.7h-11.47Zm1.27-7.98v-2.71h8.76v2.71h-8.76Z"/>
      <path class="cls-1" d="M566.44,791.72v-18.2h2.52l11.13,14.9-.42,.23c-.07-.43-.13-.91-.18-1.42-.05-.51-.1-1.06-.14-1.64s-.08-1.2-.1-1.85c-.03-.65-.05-1.33-.07-2.04s-.03-1.45-.03-2.21v-5.98h2.81v18.2h-2.57l-10.95-14.35,.29-.36c.09,1.06,.16,1.95,.22,2.69,.06,.74,.11,1.36,.16,1.87,.04,.51,.07,.93,.09,1.25,.02,.32,.03,.59,.04,.79,0,.21,.01,.39,.01,.55v7.57h-2.81Z"/>
      <path class="cls-1" d="M591.01,791.72v-15.5h-5.1v-2.7h13.16v2.7h-5.25v15.5h-2.81Z"/>
      <path class="cls-1" d="M599.83,791.72l7.05-18.2h2.86l6.99,18.2h-2.99l-4.16-10.97c-.05-.12-.15-.42-.3-.88-.15-.47-.32-.99-.51-1.56-.19-.57-.36-1.1-.52-1.57-.16-.48-.26-.78-.31-.92l.6-.03c-.1,.29-.23,.67-.38,1.12-.15,.45-.3,.93-.47,1.43-.17,.5-.33,.97-.48,1.42-.16,.44-.29,.81-.39,1.11l-4.13,10.87h-2.86Zm3.12-4.52l1.04-2.7h8.27l1.2,2.7h-10.5Z"/>
      <path class="cls-1" d="M620.42,791.72v-18.2h2.81v15.5h8.53v2.7h-11.34Z"/>
      <path class="cls-1" d="M651.65,791.98c-1.27,0-2.43-.23-3.48-.68-1.06-.45-1.98-1.1-2.76-1.94-.78-.84-1.38-1.83-1.81-2.98s-.64-2.4-.64-3.77c0-1.3,.23-2.51,.69-3.63,.46-1.12,1.1-2.1,1.91-2.95,.81-.85,1.76-1.51,2.83-1.97,1.07-.47,2.24-.7,3.48-.7,.88,0,1.75,.13,2.59,.4s1.6,.64,2.29,1.12c.68,.48,1.24,1.02,1.68,1.62l-1.87,1.95c-.5-.5-1.01-.92-1.52-1.26-.51-.34-1.03-.59-1.56-.77-.53-.17-1.06-.26-1.6-.26-.85,0-1.64,.16-2.38,.48-.74,.32-1.38,.77-1.92,1.34-.55,.57-.97,1.25-1.29,2.04-.31,.79-.47,1.65-.47,2.59,0,.99,.15,1.89,.46,2.69,.3,.81,.73,1.5,1.29,2.07,.55,.57,1.22,1.01,1.99,1.31,.77,.3,1.62,.45,2.56,.45,.57,0,1.14-.08,1.69-.23s1.07-.38,1.56-.68,.93-.64,1.33-1.04l1.4,2.29c-.4,.47-.94,.89-1.62,1.27-.69,.38-1.45,.68-2.29,.9s-1.69,.33-2.54,.33Z"/>
      <path class="cls-1" d="M670.03,791.98c-1.28,0-2.47-.23-3.55-.7-1.08-.47-2.03-1.12-2.83-1.96-.81-.84-1.43-1.83-1.87-2.96-.44-1.13-.66-2.38-.66-3.73s.22-2.59,.66-3.73c.44-1.13,1.07-2.12,1.87-2.96,.81-.84,1.75-1.5,2.83-1.96,1.08-.47,2.27-.7,3.55-.7s2.46,.23,3.55,.7c1.08,.47,2.03,1.13,2.83,1.98,.81,.85,1.43,1.84,1.87,2.98,.44,1.14,.66,2.37,.66,3.71s-.22,2.57-.66,3.71c-.44,1.14-1.07,2.13-1.87,2.98-.81,.85-1.75,1.51-2.83,1.98-1.08,.47-2.27,.7-3.55,.7Zm0-2.73c.88,0,1.69-.17,2.43-.49,.74-.33,1.37-.79,1.91-1.39,.54-.6,.96-1.3,1.26-2.11s.46-1.69,.46-2.64-.15-1.83-.46-2.64c-.3-.81-.72-1.51-1.26-2.11s-1.17-1.06-1.91-1.39c-.74-.33-1.55-.49-2.43-.49s-1.69,.16-2.43,.49c-.74,.33-1.38,.79-1.92,1.38-.55,.59-.97,1.29-1.26,2.09-.29,.81-.44,1.69-.44,2.66s.15,1.84,.44,2.65,.71,1.52,1.26,2.11,1.19,1.05,1.92,1.38c.74,.33,1.55,.49,2.43,.49Z"/>
      <path class="cls-1" d="M683.23,791.72v-18.2h7.75c1.04,0,2,.26,2.87,.77s1.57,1.21,2.09,2.08c.52,.88,.78,1.86,.78,2.95,0,.99-.26,1.91-.78,2.76-.52,.85-1.21,1.53-2.08,2.04-.87,.51-1.83,.77-2.89,.77h-4.94v6.84h-2.81Zm2.81-9.54h5.2c.5,0,.95-.12,1.35-.38,.4-.25,.71-.6,.94-1.04,.22-.44,.34-.93,.34-1.47,0-.61-.14-1.14-.43-1.6s-.68-.82-1.2-1.08c-.51-.26-1.09-.39-1.73-.39h-4.47v5.95Zm8.01,9.54l-4.63-8.22,2.89-.65,5.15,8.89-3.41-.03Z"/>
      <path class="cls-1" d="M701.8,791.72v-18.2h7.41c.99,0,1.88,.25,2.69,.74,.81,.49,1.45,1.17,1.94,2.01,.49,.85,.73,1.79,.73,2.83s-.24,1.99-.73,2.83c-.49,.85-1.13,1.53-1.94,2.04-.81,.51-1.7,.77-2.69,.77h-4.6v6.97h-2.81Zm2.81-9.67h4.55c.47,0,.89-.13,1.27-.4,.38-.27,.69-.62,.92-1.07,.23-.44,.35-.93,.35-1.47s-.12-1.02-.35-1.46c-.23-.43-.54-.78-.92-1.04-.38-.26-.81-.39-1.27-.39h-4.55v5.82Z"/>
      <path class="cls-1" d="M726.39,791.98c-1.28,0-2.47-.23-3.55-.7-1.08-.47-2.03-1.12-2.83-1.96-.81-.84-1.43-1.83-1.87-2.96-.44-1.13-.66-2.38-.66-3.73s.22-2.59,.66-3.73c.44-1.13,1.07-2.12,1.87-2.96,.81-.84,1.75-1.5,2.83-1.96,1.08-.47,2.27-.7,3.55-.7s2.46,.23,3.55,.7c1.08,.47,2.03,1.13,2.83,1.98,.81,.85,1.43,1.84,1.87,2.98,.44,1.14,.66,2.37,.66,3.71s-.22,2.57-.66,3.71c-.44,1.14-1.07,2.13-1.87,2.98-.81,.85-1.75,1.51-2.83,1.98-1.08,.47-2.27,.7-3.55,.7Zm0-2.73c.88,0,1.69-.17,2.43-.49,.74-.33,1.37-.79,1.91-1.39,.54-.6,.96-1.3,1.26-2.11s.46-1.69,.46-2.64-.15-1.83-.46-2.64c-.3-.81-.72-1.51-1.26-2.11s-1.17-1.06-1.91-1.39c-.74-.33-1.55-.49-2.43-.49s-1.69,.16-2.43,.49c-.74,.33-1.38,.79-1.92,1.38-.55,.59-.97,1.29-1.26,2.09-.29,.81-.44,1.69-.44,2.66s.15,1.84,.44,2.65,.71,1.52,1.26,2.11,1.19,1.05,1.92,1.38c.74,.33,1.55,.49,2.43,.49Z"/>
      <path class="cls-1" d="M739.6,791.72v-18.2h7.75c1.04,0,2,.26,2.87,.77,.88,.51,1.57,1.21,2.09,2.08,.52,.88,.78,1.86,.78,2.95,0,.99-.26,1.91-.78,2.76-.52,.85-1.21,1.53-2.08,2.04-.87,.51-1.83,.77-2.89,.77h-4.94v6.84h-2.81Zm2.81-9.54h5.2c.5,0,.95-.12,1.35-.38,.4-.25,.71-.6,.94-1.04,.22-.44,.34-.93,.34-1.47,0-.61-.14-1.14-.43-1.6s-.69-.82-1.2-1.08c-.51-.26-1.09-.39-1.73-.39h-4.47v5.95Zm8.01,9.54l-4.63-8.22,2.89-.65,5.15,8.89-3.41-.03Z"/>
      <path class="cls-1" d="M756.27,791.72l7.05-18.2h2.86l6.99,18.2h-2.99l-4.16-10.97c-.05-.12-.15-.42-.3-.88-.15-.47-.32-.99-.51-1.56-.19-.57-.36-1.1-.52-1.57s-.26-.78-.31-.92l.6-.03c-.1,.29-.23,.67-.38,1.12-.15,.45-.3,.93-.47,1.43-.17,.5-.33,.97-.48,1.42-.16,.44-.29,.81-.39,1.11l-4.13,10.87h-2.86Zm3.12-4.52l1.04-2.7h8.27l1.2,2.7h-10.5Z"/>
      <path class="cls-1" d="M779.02,791.72v-15.5h-5.1v-2.7h13.16v2.7h-5.25v15.5h-2.81Z"/>
      <path class="cls-1" d="M790.35,791.72v-2.6h2.94v-13h-2.94v-2.6h8.68v2.6h-2.94v13h2.94v2.6h-8.68Z"/>
      <path class="cls-1" d="M809.31,791.72l-7.28-18.2h3.2l4.34,11.05c.21,.54,.39,1.02,.56,1.46,.17,.43,.31,.83,.43,1.18s.23,.69,.34,1c.1,.31,.21,.62,.31,.94l-.68,.03c.12-.42,.25-.85,.39-1.3,.14-.45,.3-.94,.48-1.48,.18-.54,.4-1.14,.66-1.82l4.03-11.05h3.28l-7.33,18.2h-2.73Z"/>
      <path class="cls-1" d="M819.19,791.72l7.05-18.2h2.86l6.99,18.2h-2.99l-4.16-10.97c-.05-.12-.15-.42-.3-.88-.15-.47-.32-.99-.51-1.56-.19-.57-.36-1.1-.52-1.57s-.26-.78-.31-.92l.6-.03c-.1,.29-.23,.67-.38,1.12-.15,.45-.3,.93-.47,1.43-.17,.5-.33,.97-.48,1.42-.16,.44-.29,.81-.39,1.11l-4.13,10.87h-2.86Zm3.12-4.52l1.04-2.7h8.27l1.2,2.7h-10.5Z"/>
    </g>
    <g>
      <path class="cls-1" d="M646.13,392.02c-2.65-13.66-7.73-26.39-14.58-38.51-13.51-23.92-34.86-37.81-60.68-44.96-25.12-6.96-50.69-12.34-76.02-18.6-19.25-4.76-38.43-9.82-57.64-14.74,.04-36.09,.08-72.18,.12-108.27,0-6.52,.09-13.04-.01-19.56-.05-2.95,.69-3.93,3.94-3.08,33.76,8.86,67.85,16.57,100.77,28.27,27.51,9.78,50.01,26.45,68.32,49.12,14.68,18.18,25.24,38.15,30.75,60.71,3.85,15.79,5.3,31.87,5.21,48.1-.11,20.5-.14,41.01-.2,61.51Z"/>
      <path class="cls-2" d="M431.91,272.93c15.22,3.69,29.54,7.16,43.86,10.62,27.28,6.6,54.57,13.16,81.84,19.81,19.02,4.64,37.15,11.3,52.57,23.73,12.91,10.4,21.17,24.1,27.91,38.86,5.58,12.24,7.93,25.04,7.85,38.46-.19,32.45-.06,64.9-.07,97.36,0,.41-.12,.83-.12,.79-6.12-4.83-11.92-10.32-18.57-14.48-16.09-10.07-33.96-14.49-52.96-15.38-13.75-.64-27.74-.91-41.11-3.72-25.53-5.37-47.73-17.84-65.46-36.97-19.17-20.67-30.49-45.29-34.52-73.08-.84-5.8-1.12-11.71-1.16-17.57-.14-20.84-.05-41.68-.05-62.52,0-1.73,0-3.45,0-5.91Z"/>
    </g>
    <g>
      <rect class="cls-2" x="159.75" y="763.25" width="49.5" height="1" transform="translate(-7.45 1.84) rotate(-.56)"/>
      <rect class="cls-2" x="870.75" y="763.25" width="49.5" height="1" transform="translate(-7.42 8.78) rotate(-.56)"/>
    </g>
  </g>
</svg>